<?xml version="1.0" encoding="UTF-8" standalone="no"?>
<svg
   width="290mm"
   height="290mm"
   viewBox="-588 200 290 290"
   version="1.1"
   id="svg1"
   sodipodi:docname="QR Link.svg"
   inkscape:version="1.3.2 (091e20e, 2023-11-25, custom)"
   xml:space="preserve"
   xmlns:inkscape="http://www.inkscape.org/namespaces/inkscape"
   xmlns:sodipodi="http://sodipodi.sourceforge.net/DTD/sodipodi-0.dtd"
   xmlns="http://www.w3.org/2000/svg"
   xmlns:svg="http://www.w3.org/2000/svg"><defs
     id="defs1" /><sodipodi:namedview
     id="namedview1"
     pagecolor="#ffffff"
     bordercolor="#000000"
     borderopacity="0.25"
     inkscape:showpageshadow="2"
     inkscape:pageopacity="0.0"
     inkscape:pagecheckerboard="0"
     inkscape:deskcolor="#d1d1d1"
     inkscape:document-units="mm"
     showgrid="true"
     inkscape:zoom="0.50032046"
     inkscape:cx="1072.3127"
     inkscape:cy="380.75597"
     inkscape:window-width="1920"
     inkscape:window-height="1001"
     inkscape:window-x="-9"
     inkscape:window-y="-9"
     inkscape:window-maximized="1"
     inkscape:current-layer="svg1"><inkscape:grid
       id="grid1"
       units="mm"
       originx="0"
       originy="0"
       spacingx="0.99999999"
       spacingy="0.99999999"
       empcolor="#0099e5"
       empopacity="0.30196078"
       color="#0099e5"
       opacity="0.14901961"
       empspacing="5"
       dotted="false"
       gridanglex="30"
       gridanglez="30"
       visible="true" /></sodipodi:namedview><path
     id="path2"
     style="fill:#000000;stroke-width:0.251539"
     d="m -445.93031,374.83475 c -17.12743,-1.692 -29.25199,-17.3848 -26.74008,-34.60964 l 0.27726,-1.90122 1.22371,-1.2045 c 1.82347,-1.79486 4.10025,-2.87405 7.12749,-3.37841 l 0.70045,-0.1167 -1.10071,0.63423 c -10.87346,6.26527 -6.3465,23.17764 6.20398,23.17764 12.24207,0 17.04125,-16.25891 6.74504,-22.85122 -1.82309,-1.16726 1.56317,-0.77385 4.01583,0.46655 3.25928,1.64835 4.04863,3.82989 4.04863,11.18922 0,6.11196 0.39627,7.9894 2.03141,9.62454 2.11193,2.11194 4.93607,1.1192 6.03032,-2.11977 0.12008,-0.35546 0.25669,-4.01027 0.32582,-8.71728 l 0.11904,-8.1052 0.45038,-0.84385 c 0.66811,-1.2518 1.82452,-1.67227 2.49527,-0.90727 1.04715,1.19429 1.09408,1.60951 1.52134,13.45863 l 0.16958,4.70302 0.45684,1.049 c 1.18936,2.73103 3.9276,3.5688 5.92694,1.81336 1.67473,-1.47043 1.8827,-2.80094 1.8864,-12.06826 0.003,-6.81088 0.0879,-7.70128 0.83726,-8.75562 0.69261,-0.97446 1.81436,-0.62082 2.549,0.80358 0.39335,0.76266 0.60284,4.27543 0.61148,10.25351 0.011,7.63539 0.37979,9.51857 2.00463,10.2378 0.7424,0.32861 0.76053,0.15989 -0.22249,2.0701 -5.59283,10.86795 -17.46812,17.30562 -29.69482,16.09776 z m -15.35031,-20.18655 c -9.51882,-3.04353 -9.19192,-16.87417 0.45726,-19.34618 6.32047,-1.61923 12.25963,2.76736 12.54623,9.26648 l 0.09,2.0419 -0.41569,1.36859 c -1.60706,5.29091 -7.42181,8.34977 -12.67784,6.66921 z m 34.16719,-0.29103 c -0.76661,-0.76661 -0.87389,-1.64264 -1.10566,-9.02878 -0.2232,-7.11315 -0.36945,-8.69734 -0.92784,-10.05051 -1.50715,-3.65234 -5.52433,-3.85089 -7.3215,-0.36187 -0.79057,1.53481 -0.8269,1.92464 -0.94227,10.11218 l -0.11422,8.1052 -0.35386,0.64752 c -0.72217,1.32145 -1.81455,1.00943 -2.61732,-0.74758 l -0.41147,-0.90058 -0.13348,-5.6036 c -0.29466,-12.37012 -4.79826,-16.58795 -15.96887,-14.95559 -0.79988,0.11689 -1.61839,0.11452 -2.20141,-0.006 -3.03312,-0.62892 -7.21791,-0.0649 -10.03156,1.35203 -1.7894,0.90113 -1.77082,0.92748 -0.78591,-1.1142 12.33758,-25.57508 50.85081,-20.86017 56.51704,6.919 1.29011,6.32486 -0.0713,18.4653 -1.73371,15.46004 -0.17892,-0.32345 -0.29095,-2.64886 -0.39772,-8.2553 -0.0817,-4.29275 -0.25092,-8.35576 -0.37593,-9.02892 -0.9602,-5.17035 -6.15512,-6.03419 -7.91787,-1.31662 l -0.35105,0.93951 -0.1151,8.30533 -0.1151,8.30533 -0.35146,0.64448 c -0.61618,1.1299 -1.47213,1.35089 -2.24373,0.57929 z M -588,200 v 9.99991 9.9999 9.99991 9.99991 10.00094 9.99939 9.9999 h 9.99991 9.9999 9.99991 9.99991 10.00094 9.99939 9.9999 v -9.9999 -9.99939 -10.00094 -9.99991 -9.99991 -9.9999 V 200 h -9.9999 -9.99939 -10.00094 -9.99991 -9.99991 -9.9999 z m 89.99967,0 v 9.99991 h 9.99991 9.99991 v 9.9999 h 9.9999 V 209.99991 200 h -9.9999 -9.99991 z m 29.99972,19.99981 v 9.99991 h 10.00094 v -9.99991 z m 10.00094,0 h 9.99991 v -9.9999 h -9.99991 z m 9.99991,0 v 9.99991 h 9.99991 9.99939 9.9999 v -9.99991 h -9.9999 -9.99939 z m 29.9992,0 h 9.99991 9.99991 9.9999 v 9.99991 h -9.9999 -9.99991 -9.99991 v 9.99991 10.00094 9.99939 h 9.99991 v -9.99939 h 9.99991 9.9999 v -10.00094 h 10.00094 v -9.99991 -9.99991 -9.9999 h -10.00094 -9.9999 -9.99991 -9.99991 z m 0,-9.9999 V 200 h -9.9999 -9.99939 v 9.99991 h 9.99939 z m 29.99972,40.00066 v 9.99939 9.9999 9.99991 h 10.00094 v -9.99991 -9.9999 -9.99939 z m 10.00094,29.9992 v 9.9999 h 9.99991 9.9999 v -9.9999 h -9.9999 z m 19.99981,9.9999 v 9.99991 h 9.99991 9.99991 v -9.99991 h 9.99939 v -9.9999 h -9.99939 -9.99991 v 9.9999 z m 29.99921,0 v 9.99991 h 9.9999 v -9.99991 z m 9.9999,0 h 9.99991 v -9.9999 h -9.99991 z m -69.99986,-9.9999 h -9.9999 v 9.9999 h -9.99991 v -9.9999 h -9.99991 v 9.9999 9.99991 h 9.99991 9.99991 9.9999 v -9.99991 z m -29.99972,0 v -9.99991 -9.9999 h -9.9999 v 9.9999 h -9.99939 v -9.9999 h -9.99991 v 9.9999 9.99991 9.9999 9.99991 h -9.99991 v -9.99991 -9.9999 h -10.00094 v 9.9999 h -9.9999 v 9.99991 h 9.9999 v 9.99991 h -9.9999 v 9.9999 H -478 V 310 h 40.00015 v -5.1e-4 h 9.99939 v -9.99991 h -9.99939 v -9.99991 -9.9999 h 9.99939 z m -59.99995,29.99972 v -9.99991 h -9.99991 -9.99991 -9.9999 -9.99991 -9.9999 v 9.99991 h 9.9999 9.99991 v 9.9999 10.00094 h -9.99991 v 9.99991 h 9.99991 9.9999 v -9.99991 -10.00094 -9.9999 h 9.99991 z m -19.99982,30.00075 v 9.99991 h -9.9999 -9.99991 v 9.99939 h 9.99991 v 9.9999 h 9.9999 v 9.99991 h 9.99991 9.99991 v -9.99991 h -9.99991 v -9.9999 h 9.99991 v 9.9999 H -478 v -19.99929 h -5.1e-4 v -9.99991 h -9.99991 z m 0,39.99911 h -9.9999 v 9.99991 h -9.99991 v 9.9999 h -9.9999 -9.99939 v -9.9999 h -10.00094 -9.99991 v -9.99991 h -9.99991 -9.9999 v -9.99991 h 9.9999 9.99991 9.99991 v 9.99991 h 10.00094 v -9.99991 -9.9999 h 9.99939 v -9.99939 h 9.9999 v -9.99991 h -9.9999 v -9.99991 h -9.99939 v 9.99991 9.99991 h -10.00094 v -9.99991 h -9.99991 v -9.99991 h 9.99991 v -10.00094 h -9.99991 v -9.9999 h -9.99991 v 9.9999 10.00094 9.99991 h -9.9999 v 9.99991 9.99939 H -588 v 9.9999 9.99991 9.99991 9.9999 10.00094 h 9.99991 9.9999 9.99991 v -10.00094 h 9.99991 v 10.00094 h 10.00094 9.99939 9.9999 9.99991 v 9.99991 h 9.9999 v -9.99991 -10.00094 -9.9999 z m 0,40.00066 v 9.9999 h 9.99991 v -9.9999 z m 9.99991,0 h 9.99991 v -9.99991 h 9.9999 v -10.00094 h -9.9999 -9.99991 v 10.00094 z m 19.99981,-20.00085 h 10.00094 v -9.9999 -9.99939 h -10.00094 v 9.99939 z m 10.00094,0 v 10.00094 h 9.99991 v -10.00094 z m 9.99991,0 h 9.99991 9.99939 v 10.00094 h 9.9999 9.99991 v -10.00094 h -9.99991 v -9.9999 h -9.9999 v -9.99939 h -19.9993 v 9.99939 z m 39.99911,10.00094 v 9.99991 9.9999 h -9.99991 v 9.99991 h 9.99991 9.99991 v 9.99991 h 9.9999 v 9.99939 h -9.9999 -9.99991 v 9.9999 h 9.99991 v 9.99991 10.00094 h 9.9999 10.00094 9.99991 9.9999 9.99991 v -10.00094 h 9.99991 9.99939 9.9999 v -9.99991 h -9.9999 -9.99939 v -9.9999 h -9.99991 -9.99991 v 9.9999 9.99991 h -9.9999 v -9.99991 -9.9999 -9.99939 h 9.9999 9.99991 9.99991 v 9.99939 h 9.99939 v -9.99939 -9.99991 -9.99991 h -9.99939 v -9.9999 h 9.99939 v -9.99991 h 9.9999 v 9.99991 h 9.99991 v -9.99991 h 10.00094 v -10.00094 h -10.00094 -9.99991 v -9.9999 h -9.9999 v 9.9999 h -9.99939 -9.99991 v -9.9999 h -9.99991 v -9.99991 h -9.9999 -9.99991 v -9.99991 -9.9999 h 9.99991 9.9999 v 9.9999 9.99991 h 9.99991 9.99991 v 9.99991 h 9.99939 v -9.99991 h 9.9999 v -9.99991 h -9.9999 -9.99939 -9.99991 v -9.9999 -9.99939 h 9.99991 v -9.99991 -9.99991 h -9.99991 -9.99991 v -10.00094 -9.9999 h -9.9999 -9.99991 -10.00094 v 9.9999 h 10.00094 9.99991 v 10.00094 h -9.99991 v 9.99991 h -10.00094 -9.9999 v 9.99991 9.99939 h 9.9999 v 9.9999 h -9.9999 v 9.99991 9.99991 h 9.9999 10.00094 v 9.9999 h -10.00094 -9.9999 v 10.00094 h 9.9999 v 9.99991 h -9.9999 v -9.99991 z m 9.99991,-69.99986 v -9.99991 h -9.99939 v 9.99991 z m 0,-9.99991 h 9.9999 v -10.00094 h -9.9999 z m 0,-10.00094 v -9.9999 h -9.99991 -9.99991 V 310 h 10.00043 v 9.99939 z m 60.00047,10.00094 h 9.99939 v -10.00094 h -9.99939 z m 0,19.99982 v 9.99939 h 9.99939 9.9999 9.99991 10.00094 v -9.99939 -9.99991 -9.99991 h -10.00094 v 9.99991 9.99991 h -9.99991 -9.9999 z m 19.99929,119.99887 h 9.99991 v 9.99991 h 10.00094 v -9.99991 -9.9999 -9.99939 h -10.00094 v 9.99939 h -9.99991 z m 9.99991,-19.99929 v -9.99991 h -9.99991 v 9.99991 z m 0,-9.99991 h 10.00094 v -9.99991 h -10.00094 z m -99.99958,19.9993 v -9.99939 h -9.99991 v 9.99939 z m -9.99991,-9.99939 v -9.99991 h -9.9999 -9.99939 v 9.99991 9.99939 9.9999 h 9.99939 v -9.9999 -9.99939 z m -9.9999,19.99929 v 9.99991 10.00094 h 9.9999 v -10.00094 -9.99991 z m -9.99939,-29.9992 v -9.99991 h -9.99991 v 9.99991 z m -9.99991,-9.99991 v -9.9999 h -9.99991 v 9.9999 z m -9.99991,0 h -10.00094 v 9.99991 h 10.00094 z m -10.00094,9.99991 h -9.9999 v 9.99991 h 9.9999 z m 0,9.99991 v 9.99939 h 10.00094 v 9.9999 h 9.99991 v -9.9999 -9.99939 h -9.99991 z m 0,9.99939 h -9.9999 v 9.9999 9.99991 10.00094 h 9.9999 10.00094 v -10.00094 h -10.00094 v -9.99991 z m 0,-29.99921 v -9.9999 h -9.9999 v 9.9999 z m 20.00085,-9.9999 h 9.99991 v 9.9999 h 9.99939 v -9.9999 -9.99991 h -9.99939 -9.99991 z m -50.00057,9.9999 h -9.9999 v 9.99991 9.99991 9.99939 h 9.9999 v 9.9999 h 9.99991 v -9.9999 -9.99939 -9.99991 h -9.99991 z m 0,39.99911 h -9.9999 v 9.99991 h 9.9999 z m 0,9.99991 v 10.00094 h 9.99991 v -10.00094 z m -79.99976,-139.99869 v -9.99991 -10.00094 H -588 v 10.00094 9.99991 z m 29.99972,-20.00085 h 10.00094 9.99939 v -9.9999 h -9.99939 -10.00094 z m 20.00033,0 v 10.00094 h 9.9999 v -10.00094 z m 0,40.00015 v 9.9999 h 9.9999 v -9.9999 z m 9.9999,9.9999 v 9.99991 h 9.99991 v -9.99991 z m 0,9.99991 h -9.9999 -9.99939 v 9.99991 h 9.99939 9.9999 z m 39.99963,-89.99968 v -9.9999 h -9.99991 v -9.99991 h -9.99991 v -9.9999 h -9.9999 v 9.9999 9.99991 9.9999 h 9.9999 9.99991 z m -9.99991,-19.99981 h 9.99991 v -9.9999 -9.99939 h -9.99991 v 9.99939 z m 0,-19.99929 v -10.00094 -9.99991 -9.99991 h -9.99991 v 9.99991 h -9.9999 v 9.99991 10.00094 h 9.9999 z m -9.99991,-30.00076 v -9.9999 h -9.9999 v 9.9999 z m 19.99982,50.00005 v 9.99991 h 9.9999 v -9.99991 z m 9.9999,0 h 10.00094 v -9.9999 -9.99939 -10.00094 h -10.00094 v 10.00094 9.99939 z m 10.00094,-30.00023 h 9.99991 v -9.99991 h -9.99991 z m 9.99991,0 v 10.00094 h 9.99991 v -10.00094 z m 39.99911,40.00014 h 9.99991 v -9.99991 -9.9999 h -9.99991 v 9.9999 z M -367.99999,200 v 9.99991 9.9999 9.99991 9.99991 10.00094 9.99939 9.9999 h 9.9999 9.99991 9.99991 9.99939 9.9999 9.99991 10.00094 v -9.9999 -9.99939 -10.00094 -9.99991 -9.99991 -9.9999 V 200 h -10.00094 -9.99991 -9.9999 -9.99939 -9.99991 -9.99991 z m -210.0001,9.99991 h 9.9999 9.99991 9.99991 10.00094 9.99939 v 9.9999 9.99991 9.99991 10.00094 9.99939 h -9.99939 -10.00094 -9.99991 -9.99991 -9.9999 v -9.99939 -10.00094 -9.99991 -9.99991 z m 220,0 h 9.99991 9.99991 9.99939 9.9999 9.99991 v 9.9999 9.99991 9.99991 10.00094 9.99939 h -9.99991 -9.9999 -9.99939 -9.99991 -9.99991 v -9.99939 -10.00094 -9.99991 -9.99991 z m -210.0001,9.9999 v 9.99991 9.99991 10.00094 h 9.99991 9.99991 10.00094 v -10.00094 -9.99991 -9.99991 h -10.00094 -9.99991 z m 220.00001,0 v 9.99991 9.99991 10.00094 h 9.99991 9.99939 9.9999 v -10.00094 -9.99991 -9.99991 h -9.9999 -9.99939 z m -229.99991,59.99996 v 9.9999 H -588 v 9.99991 h 9.99991 9.9999 v -9.99991 -9.9999 z m 19.99981,0 v 9.9999 h 9.99991 v 9.99991 h 10.00094 v -9.99991 h 9.99939 9.9999 v -9.9999 h -9.9999 -9.99939 -10.00094 z m 239.9993,29.99972 v 9.9999 h 9.99991 v -9.9999 z m -49.99901,30.00075 h 9.9999 v 9.99991 h -9.9999 z m -200.0002,9.99991 h 9.99991 v 9.99939 h -9.99991 z m 259.99912,29.9992 v 9.99991 h 10.00094 v -9.99991 z m -69.99883,30.00075 h 9.99991 9.9999 9.99991 v 9.99991 9.9999 9.99991 h -9.99991 -9.9999 -9.99991 v -9.99991 -9.9999 z M -588,420.00001 v 9.9999 9.99991 9.99991 9.99939 9.9999 9.99991 10.00094 h 9.99991 9.9999 9.99991 9.99991 10.00094 9.99939 9.9999 v -10.00094 -9.99991 -9.9999 -9.99939 -9.99991 -9.99991 -9.9999 h -9.9999 -9.99939 -10.00094 -9.99991 -9.99991 -9.9999 z m 220.00001,0 v 9.9999 h 9.9999 v -9.9999 z m -210.0001,9.9999 h 9.9999 9.99991 9.99991 10.00094 9.99939 v 9.99991 9.99991 9.99939 9.9999 9.99991 h -9.99939 -10.00094 -9.99991 -9.99991 -9.9999 v -9.99991 -9.9999 -9.99939 -9.99991 z m 9.9999,9.99991 v 9.99991 9.99939 9.9999 h 9.99991 9.99991 10.00094 v -9.9999 -9.99939 -9.99991 h -10.00094 -9.99991 z m 179.99935,29.9992 h 10.00094 v 9.99991 h -10.00094 z" /></svg>
